<svg width="32" height="32" viewBox="0 0 32 32" fill="none" xmlns="http://www.w3.org/2000/svg" role="img" aria-labelledby="monarch-sync-title monarch-sync-desc">
  <title id="monarch-sync-title">Monarch Sync</title>
  <desc id="monarch-sync-desc">Icon showing sync arrows with receipt symbol, representing retail order synchronization</desc>
  <!-- Dark background for sidebar visibility -->
  <rect width="32" height="32" rx="6" fill="#18181B"/>

  <!-- Outer sync ring -->
  <circle cx="16" cy="16" r="12" stroke="#06B6D4" stroke-width="1.5" stroke-dasharray="3 2" opacity="0.3"/>

  <!-- Main sync arrows forming circular motion -->
  <path d="M16 5 C 22 5, 26 9, 26 15 L 24 15 M 24 15 L 26 12.5 M 24 15 L 26 17.5"
        stroke="#06B6D4" stroke-width="2" stroke-linecap="round" stroke-linejoin="round" fill="none"/>

  <path d="M16 27 C 10 27, 6 23, 6 17 L 8 17 M 8 17 L 6 14.5 M 8 17 L 6 19.5"
        stroke="#06B6D4" stroke-width="2" stroke-linecap="round" stroke-linejoin="round" fill="none"/>

  <!-- Central receipt/transaction symbol -->
  <rect x="12" y="11" width="8" height="10" rx="1" fill="#06B6D4"/>
  <line x1="14" y1="14" x2="18" y2="14" stroke="#18181B" stroke-width="1.2" stroke-linecap="round"/>
  <line x1="14" y1="16" x2="18" y2="16" stroke="#18181B" stroke-width="1.2" stroke-linecap="round"/>
  <line x1="14" y1="18" x2="17" y2="18" stroke="#18181B" stroke-width="1.2" stroke-linecap="round"/>
</svg>
